<?xml version="1.0" standalone="no"?>
<!DOCTYPE svg PUBLIC "-//W3C//DTD SVG 20010904//EN"
 "http://www.w3.org/TR/2001/REC-SVG-20010904/DTD/svg10.dtd">
<svg version="1.0" xmlns="http://www.w3.org/2000/svg"
 width="600.000000pt" height="600.000000pt" viewBox="0 0 600.000000 600.000000"
 preserveAspectRatio="xMidYMid meet">
<g transform="translate(0.000000,600.000000) scale(0.100000,-0.100000)"
fill="#000000" stroke="none">
<path d="M2559 5996 c-2 -2 -42 -6 -89 -10 -47 -4 -98 -11 -115 -16 -16 -5
-50 -14 -75 -20 -25 -7 -55 -16 -68 -21 -13 -5 -28 -7 -33 -4 -5 4 -9 2 -9 -4
0 -6 -6 -8 -14 -5 -8 3 -17 0 -21 -5 -3 -6 -10 -9 -15 -6 -5 3 -44 -8 -87 -25
-43 -17 -87 -32 -98 -34 -27 -5 -66 -21 -143 -56 -35 -17 -67 -30 -72 -30 -5
0 -31 -12 -57 -27 -79 -44 -97 -53 -110 -53 -7 0 -13 -4 -13 -10 0 -5 -4 -10
-9 -10 -5 0 -27 -12 -49 -26 -22 -15 -44 -26 -49 -26 -9 0 -91 -55 -111 -75
-7 -7 -19 -13 -27 -13 -7 0 -15 -4 -17 -8 -1 -5 -25 -24 -53 -43 -98 -67 -205
-154 -205 -166 0 -7 -6 -13 -14 -13 -8 0 -44 -30 -80 -67 -80 -82 -67 -69
-148 -149 -38 -36 -68 -72 -68 -80 0 -8 -6 -14 -13 -14 -7 0 -26 -18 -43 -40
-16 -22 -39 -53 -52 -68 -13 -15 -41 -54 -64 -87 -23 -33 -48 -66 -55 -73 -7
-7 -13 -19 -13 -27 0 -7 -4 -15 -8 -17 -10 -4 -75 -98 -67 -98 3 0 -6 -18 -20
-40 -14 -22 -25 -44 -25 -49 0 -5 -3 -11 -8 -13 -14 -6 -172 -337 -172 -361 0
-7 -5 -18 -12 -25 -7 -7 -9 -12 -5 -12 3 0 -5 -30 -19 -67 -37 -97 -54 -155
-48 -165 3 -4 1 -8 -4 -8 -5 0 -9 -6 -9 -12 0 -16 -31 -144 -43 -178 -17 -50
-19 -98 -5 -104 7 -2 19 3 27 11 11 15 11 16 -7 9 -17 -6 -16 -4 5 19 27 29
35 66 12 57 -11 -4 -13 -2 -6 9 4 8 7 22 5 33 -1 10 2 16 8 12 6 -4 8 2 6 15
-3 13 1 29 7 36 6 7 8 16 5 19 -3 3 3 26 13 50 11 24 17 50 14 58 -3 7 2 16
12 20 13 5 14 9 4 21 -9 11 -7 21 11 46 13 18 16 29 8 24 -11 -7 -12 -6 -3 6
6 8 17 38 25 67 8 33 16 47 21 40 7 -12 12 11 11 50 -1 15 9 16 25 2 7 -5 5
-2 -3 7 -13 15 -12 21 11 60 13 24 22 43 19 43 -4 0 1 7 9 16 9 8 14 20 11 25
-4 5 0 9 8 9 8 0 21 8 28 17 8 10 9 14 2 10 -6 -4 -14 -3 -17 2 -3 5 1 12 10
15 9 4 14 13 10 21 -3 8 -1 15 4 15 6 0 10 7 10 16 0 8 5 12 10 9 6 -3 10 -1
10 4 0 6 -5 11 -12 11 -6 0 -8 3 -4 8 4 4 13 7 18 7 6 0 13 7 15 15 4 13 3 13
-6 0 -7 -9 -11 -10 -11 -3 0 19 21 27 31 12 6 -10 9 -11 9 -1 0 18 -4 27 -12
25 -16 -6 7 34 36 61 28 26 46 64 25 50 -5 -3 -7 -9 -4 -14 3 -4 -2 -11 -10
-14 -12 -4 -13 -2 -6 13 6 10 17 23 25 31 16 13 21 6 17 -27 -1 -6 2 -14 7
-17 10 -6 8 36 -2 52 -5 9 55 115 81 142 7 8 19 23 26 33 7 10 21 19 32 21 10
1 21 9 23 17 3 12 2 12 -6 0 -12 -17 -24 0 -12 18 4 8 13 10 20 6 8 -5 11 -4
7 2 -4 6 3 23 15 39 13 15 16 24 9 19 -10 -5 -12 -4 -7 4 4 6 11 9 16 6 4 -3
14 3 21 12 12 14 12 16 0 8 -9 -5 -12 -4 -7 3 4 6 13 9 20 6 8 -3 17 0 22 7 5
8 3 10 -7 5 -8 -5 -8 -2 2 6 9 7 14 19 11 26 -2 7 5 16 17 19 11 3 18 9 15 14
-3 5 2 9 10 9 9 0 16 5 16 10 0 6 10 10 23 11 18 0 19 2 5 7 -15 6 -13 10 10
31 15 13 27 23 27 22 0 -1 8 1 18 4 9 4 17 11 17 17 0 5 -6 6 -12 3 -7 -4 -2
2 12 13 13 11 29 20 34 19 4 -1 11 5 13 13 4 13 3 13 -6 0 -6 -8 -11 -10 -11
-4 0 16 49 47 64 41 22 -8 35 6 20 21 -8 7 -14 8 -14 2 0 -5 -5 -10 -11 -10
-8 0 -8 5 1 15 10 12 16 13 27 4 11 -9 17 -9 26 1 9 10 9 11 -2 5 -9 -5 -12
-3 -9 6 3 8 12 13 19 11 8 -2 11 0 7 3 -7 8 80 85 95 85 4 0 5 5 2 10 -3 6 -2
10 2 10 5 0 14 -4 21 -10 9 -7 9 -7 2 2 -13 15 -13 31 0 23 5 -3 18 3 30 15
11 11 24 20 30 20 6 0 10 5 10 11 0 8 4 8 14 0 12 -10 13 -8 9 10 -5 18 -3 21
11 16 9 -4 14 -3 11 2 -3 5 5 13 17 17 13 4 29 15 36 26 11 15 17 16 28 7 8
-6 15 -9 15 -5 1 3 2 12 3 19 1 6 7 11 14 10 7 -2 11 0 9 5 -1 4 3 7 8 7 5 0
9 -4 7 -8 -1 -5 2 -5 8 -2 6 4 9 14 6 22 -3 8 -2 12 3 8 5 -3 23 7 40 21 17
14 31 22 31 18 0 -4 5 -3 12 4 19 19 45 14 62 -10 9 -12 16 -17 16 -11 0 6 -7
16 -15 23 -8 7 -15 17 -15 22 0 6 8 4 17 -3 12 -10 15 -10 9 -1 -10 17 32 51
64 52 20 0 22 2 10 11 -12 9 -11 10 7 6 13 -3 24 1 27 9 3 7 12 11 21 8 8 -3
15 -1 15 6 0 6 4 9 9 5 5 -3 16 2 24 10 9 8 22 15 31 15 8 0 18 5 21 10 8 14
42 13 51 -2 5 -8 1 -9 -12 -4 -14 5 -16 4 -7 -5 14 -14 34 -3 27 15 -7 17 11
29 48 31 16 2 38 11 50 21 14 13 19 14 13 4 -5 -9 0 -8 13 4 12 11 22 16 22
12 0 -4 10 -1 23 5 21 12 21 11 7 -6 -14 -18 -13 -18 12 0 15 11 28 23 28 27
0 4 6 5 14 2 8 -3 17 -1 20 5 4 6 13 8 21 4 9 -3 23 1 32 8 14 12 15 11 9 -11
l-7 -25 15 25 c9 14 15 22 16 18 0 -4 11 -1 26 6 14 8 40 13 59 11 19 -1 32 2
29 7 -3 4 0 9 5 9 15 2 31 6 34 9 7 8 55 4 50 -3 -3 -5 0 -7 8 -5 8 3 13 9 12
14 -2 14 81 14 89 1 5 -8 8 -6 8 7 0 12 5 16 15 12 9 -3 15 0 15 9 0 15 -3 18
-11 11z m-1469 -649 c0 -2 -10 -12 -22 -23 l-23 -19 19 23 c18 21 26 27 26 19z
m-1028 -1742 c0 -5 -5 -10 -11 -11 -8 -2 -7 -1 0 3 8 4 7 8 -2 15 -11 8 -11 9
-1 6 8 -2 14 -8 14 -13z"/>
<path d="M3371 5984 c0 -11 3 -14 6 -6 3 7 2 16 -1 19 -3 4 -6 -2 -5 -13z"/>
<path d="M3407 5992 c-10 -2 -17 -10 -17 -17 0 -13 40 -12 62 1 4 3 5 -2 2
-10 -3 -9 -9 -14 -13 -12 -4 3 -7 -3 -7 -13 0 -10 6 -18 12 -18 7 0 10 7 6 15
-4 11 -1 13 8 7 8 -5 11 -4 6 3 -3 5 -1 12 5 14 16 5 99 -15 99 -24 0 -4 7 -4
17 -1 12 5 14 3 8 -7 -5 -9 -4 -11 4 -6 6 4 9 12 6 17 -3 5 1 6 9 3 9 -3 13
-11 9 -17 -3 -6 -1 -7 5 -3 20 12 132 -16 132 -34 0 -12 2 -12 9 -1 6 9 11 10
15 2 4 -6 16 -11 27 -11 10 0 19 -5 19 -11 0 -5 5 -7 11 -3 8 4 7 9 -2 16 -10
6 -6 7 11 2 14 -4 27 -11 28 -15 2 -5 8 -9 13 -9 6 0 7 6 2 13 -4 7 3 6 17 -4
27 -17 101 -44 113 -41 4 1 7 -2 7 -7 0 -5 6 -9 13 -8 31 1 45 -4 51 -19 3 -8
2 -13 -2 -10 -4 2 -14 0 -22 -6 -12 -8 -12 -9 3 -4 9 3 17 1 17 -4 0 -5 9 -8
20 -7 11 1 20 5 20 10 0 5 -7 7 -14 4 -10 -4 -13 -1 -10 8 4 10 11 11 22 5 10
-4 44 -20 77 -35 33 -15 71 -32 85 -38 14 -6 41 -24 60 -40 54 -43 54 -43 99
-72 24 -14 40 -21 36 -13 -5 7 2 3 14 -10 12 -12 26 -20 32 -17 13 8 11 -9 -2
-22 -8 -8 -8 -13 0 -18 7 -3 10 -1 9 6 -2 7 5 15 15 17 9 2 17 -2 17 -8 0 -6
-5 -8 -12 -4 -7 4 -8 3 -4 -5 4 -6 11 -9 16 -6 12 7 76 -30 73 -43 -1 -6 7 -7
20 -4 19 5 20 3 9 -10 -11 -14 -10 -16 10 -11 19 4 20 3 8 -7 -13 -10 -13 -11
3 -6 22 7 47 -3 47 -19 0 -7 7 -16 16 -19 14 -5 15 -4 4 9 -16 19 -6 19 24 -1
14 -8 27 -11 30 -6 3 5 -33 32 -81 58 -48 27 -106 63 -128 79 -22 17 -53 37
-70 45 -60 30 -160 93 -167 105 -4 7 -22 18 -40 26 -18 7 -35 15 -38 19 -10
11 -65 33 -79 31 -8 -1 -10 2 -5 10 5 9 2 10 -9 6 -9 -3 -22 0 -29 7 -7 7 -19
11 -27 8 -9 -3 -11 0 -6 8 5 9 4 11 -3 6 -7 -4 -12 -2 -12 4 0 6 -4 8 -10 5
-5 -3 -23 1 -40 10 -17 9 -35 13 -40 10 -6 -3 -10 -1 -10 5 0 7 -7 10 -15 6
-8 -3 -15 -1 -15 5 0 6 -4 7 -10 4 -5 -3 -10 -1 -10 5 0 7 -7 10 -15 6 -8 -3
-15 -1 -15 5 0 6 -4 8 -9 5 -4 -3 -41 5 -82 19 -40 13 -77 21 -81 19 -4 -3 -8
0 -8 7 0 6 -8 9 -20 6 -11 -3 -20 -1 -20 5 0 5 -9 6 -20 3 -12 -4 -20 -2 -20
5 0 6 -4 9 -9 6 -5 -4 -40 1 -77 9 -37 9 -73 14 -81 11 -8 -3 -12 -2 -9 3 6 9
-67 19 -97 13z"/>
<path d="M3824 5979 c-3 -6 -2 -15 3 -20 5 -5 9 -1 9 11 0 23 -2 24 -12 9z"/>
<path d="M2377 5936 c-3 -8 0 -13 6 -12 15 2 22 19 9 24 -5 1 -12 -4 -15 -12z"/>
<path d="M2466 5941 c-4 -5 -2 -12 3 -15 5 -4 12 -2 15 3 4 5 2 12 -3 15 -5 4
-12 2 -15 -3z"/>
<path d="M3490 5940 c-12 -7 -10 -9 7 -7 12 0 19 5 17 9 -6 10 -6 10 -24 -2z"/>
<path d="M3860 5861 c0 -6 4 -13 10 -16 6 -3 7 1 4 9 -7 18 -14 21 -14 7z"/>
<path d="M2960 5779 c-47 -4 -139 -9 -205 -9 -66 -1 -125 -6 -132 -12 -6 -5
-33 -11 -60 -13 -26 -1 -73 -7 -103 -13 -30 -5 -60 -7 -67 -5 -7 3 -13 1 -13
-5 0 -5 -9 -12 -21 -15 -17 -5 -18 -3 -8 9 10 13 8 13 -17 4 -15 -6 -34 -16
-41 -21 -7 -6 -17 -8 -22 -4 -6 3 -24 -1 -41 -10 -16 -8 -30 -13 -30 -10 0 3
-12 -1 -27 -8 -16 -8 -46 -18 -68 -22 -46 -10 -39 -8 -92 -25 -24 -7 -43 -17
-43 -23 0 -5 -9 -7 -20 -4 -10 3 -21 0 -24 -7 -3 -7 -8 -6 -15 4 -8 12 -11 12
-11 1 0 -8 -6 -11 -16 -7 -8 3 -12 2 -9 -4 3 -6 -4 -10 -16 -10 -12 0 -20 -3
-16 -6 10 -10 -20 -34 -42 -34 -11 0 -23 -5 -26 -10 -4 -6 -10 -8 -15 -5 -4 2
-18 -4 -31 -14 -13 -10 -35 -22 -49 -26 -14 -4 -32 -14 -40 -22 -21 -19 -89
-63 -99 -63 -5 0 -20 -9 -35 -21 -14 -11 -30 -17 -36 -14 -5 3 -10 -2 -10 -12
0 -15 -2 -16 -10 -3 -8 13 -10 12 -10 -3 0 -10 -8 -21 -17 -24 -25 -9 -74 -44
-95 -67 -10 -10 -24 -16 -33 -12 -9 3 -14 2 -11 -2 6 -11 -71 -88 -80 -80 -8
9 -54 -33 -54 -50 0 -8 -6 -12 -14 -9 -9 4 -13 1 -10 -6 2 -7 -6 -17 -18 -22
-13 -6 -22 -17 -20 -24 2 -9 -3 -11 -13 -7 -9 3 -13 2 -10 -4 3 -5 -2 -15 -11
-22 -9 -7 -30 -27 -47 -45 -16 -18 -34 -30 -38 -27 -5 3 -7 -1 -4 -8 3 -7 -5
-18 -17 -23 -13 -6 -22 -15 -21 -21 1 -5 -12 -19 -28 -29 -16 -11 -29 -26 -29
-32 0 -7 -6 -13 -14 -13 -8 0 -17 -9 -21 -19 -3 -11 -19 -34 -36 -53 -16 -18
-37 -46 -45 -61 -8 -16 -20 -25 -26 -21 -7 5 -8 3 -3 -5 4 -7 -1 -22 -13 -34
-11 -12 -25 -32 -31 -45 -7 -12 -16 -20 -21 -17 -6 4 -7 -1 -3 -11 5 -13 3
-15 -7 -9 -9 5 -11 4 -6 -4 9 -14 -28 -63 -39 -53 -5 4 -5 1 -1 -6 4 -7 1 -15
-8 -18 -9 -3 -12 -12 -9 -21 4 -11 2 -14 -5 -9 -8 5 -12 -1 -12 -17 0 -13 -9
-32 -20 -42 -11 -10 -20 -24 -20 -32 0 -7 -8 -13 -17 -13 -14 0 -15 -2 -4 -9
9 -6 10 -11 2 -15 -6 -4 -9 -11 -6 -16 3 -5 -2 -16 -11 -24 -8 -9 -12 -16 -8
-16 5 0 3 -5 -4 -12 -7 -7 -12 -20 -12 -29 0 -10 -6 -24 -13 -31 -23 -24 -107
-255 -107 -294 0 -13 -4 -24 -10 -24 -5 0 -9 -3 -8 -7 3 -8 -17 -65 -32 -95
-6 -10 -5 -18 2 -20 7 -3 7 -10 -2 -25 -8 -12 -20 -19 -29 -16 -13 4 -13 3 -2
-5 8 -6 11 -17 8 -25 -3 -9 -1 -17 5 -19 8 -3 8 -9 2 -19 -10 -17 -9 -10 -19
-86 -4 -35 -11 -61 -14 -58 -4 2 -7 -11 -7 -30 1 -18 4 -31 9 -28 11 6 9 -1
-8 -33 -11 -22 -15 -65 -15 -171 0 -96 -4 -143 -11 -143 -7 0 -8 -11 -4 -29 3
-17 10 -115 14 -219 5 -127 11 -195 19 -205 10 -12 10 -16 0 -21 -10 -5 -10
-7 0 -12 6 -3 12 -13 12 -22 0 -15 -2 -15 -11 -2 -9 12 -9 11 -4 -5 7 -20 14
-53 19 -90 2 -11 9 -40 15 -64 7 -24 10 -52 8 -62 -3 -10 1 -26 7 -36 7 -10
11 -28 10 -40 -1 -13 5 -28 12 -34 7 -6 11 -16 8 -23 -3 -8 2 -21 11 -30 9 -9
12 -16 6 -16 -6 0 -11 -5 -11 -11 0 -5 4 -8 9 -5 5 3 9 -4 9 -17 0 -22 40
-134 69 -193 9 -19 12 -42 8 -55 -5 -20 -4 -21 5 -9 10 12 11 11 7 -7 -3 -15
-1 -20 8 -17 12 5 42 -60 37 -78 -1 -5 3 -8 10 -8 6 0 9 -3 5 -6 -6 -7 45 -96
77 -133 13 -15 15 -21 6 -17 -9 5 -8 2 3 -7 9 -8 17 -21 17 -30 0 -9 5 -19 10
-22 6 -4 7 -11 4 -17 -4 -7 -2 -8 4 -4 7 4 16 -9 23 -33 7 -23 16 -38 22 -34
6 4 8 0 4 -11 -4 -10 -3 -15 3 -11 6 3 10 2 10 -4 0 -5 6 -16 13 -23 6 -7 29
-39 50 -71 21 -32 44 -60 52 -63 7 -3 11 -12 8 -20 -4 -10 0 -12 12 -8 11 5
16 2 14 -7 -2 -8 29 -45 69 -84 40 -38 71 -74 68 -80 -2 -6 5 -12 16 -12 10
-1 27 -12 37 -25 28 -36 218 -225 233 -232 7 -3 31 -17 53 -31 22 -14 46 -28
52 -31 7 -3 10 -11 6 -17 -4 -6 -1 -7 6 -2 8 4 18 -1 27 -14 8 -12 21 -21 29
-21 8 0 19 -9 25 -21 6 -11 16 -19 23 -16 6 2 18 -4 27 -12 37 -35 57 -47 68
-43 7 2 12 -1 12 -7 0 -6 8 -8 18 -4 9 3 14 3 10 -2 -8 -8 124 -75 148 -75 9
0 13 -4 9 -9 -7 -12 31 -25 46 -16 6 4 24 -7 41 -24 17 -17 39 -31 50 -31 12
0 17 -4 12 -12 -4 -7 -3 -8 5 -4 6 4 18 3 25 -3 7 -6 23 -9 37 -8 33 3 120
-23 113 -34 -3 -5 3 -6 12 -2 12 5 15 3 9 -6 -5 -10 -2 -11 13 -7 15 5 24 1
32 -14 6 -11 15 -20 21 -20 6 0 3 7 -5 16 -22 22 -20 27 7 12 12 -7 28 -11 35
-10 6 2 12 -2 12 -8 0 -5 3 -9 8 -8 17 3 88 -16 94 -26 5 -7 8 -6 8 3 0 12 3
12 18 -1 27 -23 43 -26 97 -18 28 5 54 4 59 -1 6 -5 19 -9 30 -10 21 0 21 0 1
-8 -14 -6 -1 -9 40 -9 33 0 113 -3 177 -5 75 -3 115 -1 112 5 -4 6 5 2 19 -7
21 -13 30 -14 44 -5 13 8 14 10 2 7 -9 -3 -22 -1 -30 4 -10 6 -4 9 19 9 17 0
32 -5 32 -10 0 -15 446 -11 485 4 17 7 43 11 60 9 16 -1 37 5 47 13 9 9 22 13
28 9 6 -4 16 -3 23 2 7 5 23 10 36 11 13 0 28 7 32 14 5 7 9 10 9 5 0 -4 14 0
31 8 25 14 33 14 47 3 12 -10 14 -10 8 0 -4 6 -3 12 3 12 5 0 12 -6 14 -12 4
-10 6 -10 6 0 1 6 8 12 17 12 8 0 13 -4 10 -9 -4 -5 3 -7 15 -4 19 5 19 7 5
15 -24 13 -119 20 -126 8 -3 -5 -15 -11 -25 -13 -11 -1 -26 -6 -34 -11 -8 -5
-16 -3 -22 5 -6 10 -9 11 -9 2 0 -7 -12 -13 -28 -13 -16 0 -32 -8 -39 -19 -16
-26 -84 -30 -523 -31 -428 -1 -401 -1 -375 11 14 6 1 7 -39 3 -38 -4 -56 -2
-52 4 3 6 2 14 -4 17 -6 4 -9 1 -8 -6 2 -6 -3 -14 -10 -16 -7 -3 -10 1 -7 10
5 12 -9 13 -80 10 -80 -3 -85 -2 -85 17 0 19 -5 21 -50 17 -49 -3 -67 6 -32
17 9 3 0 4 -20 1 -25 -2 -38 0 -38 8 0 7 -4 6 -11 -3 -8 -11 -12 -12 -16 -2
-2 6 -12 12 -21 12 -10 0 -23 10 -31 21 -8 15 -15 18 -20 11 -5 -9 -22 -6 -61
8 -30 11 -74 20 -97 20 -30 0 -43 4 -43 14 0 14 -119 76 -146 76 -8 0 -14 6
-14 14 0 8 -4 18 -10 21 -6 3 -7 -1 -4 -9 3 -9 1 -16 -5 -16 -6 0 -11 5 -11
10 0 6 -13 10 -30 10 -24 0 -30 4 -30 23 0 17 -2 19 -10 7 -8 -12 -13 -11 -33
8 -13 12 -29 22 -35 22 -7 0 -12 5 -12 11 0 6 -6 9 -14 6 -8 -3 -17 1 -20 10
-4 9 -13 13 -22 9 -8 -3 -13 -2 -10 3 3 4 -7 14 -22 22 -15 8 -34 22 -43 32
-10 10 -21 16 -27 15 -5 -2 -11 2 -13 7 -4 15 -49 48 -56 41 -3 -3 -12 3 -20
14 -8 11 -19 20 -24 20 -5 0 -20 9 -32 20 -12 11 -27 18 -34 16 -7 -3 -13 -1
-13 4 0 6 -79 90 -175 187 -96 97 -175 174 -175 170 0 -3 -10 4 -23 16 -13 12
-22 25 -20 29 6 11 -50 78 -64 78 -7 0 -10 6 -7 13 5 14 -31 57 -48 57 -6 0
-8 3 -5 6 10 10 -12 44 -29 44 -8 0 -13 4 -10 9 7 10 -16 61 -27 61 -5 0 -6 4
-3 9 3 5 -2 19 -12 32 -10 13 -24 37 -31 54 -7 16 -21 35 -32 43 -11 7 -17 18
-14 23 4 5 -1 12 -10 15 -11 5 -13 10 -5 19 8 9 5 14 -11 18 -19 5 -20 8 -9
21 10 13 10 16 -4 16 -9 0 -16 7 -16 15 0 8 -4 15 -10 15 -5 0 -10 13 -10 29
0 19 -8 35 -21 45 -12 8 -18 19 -15 25 4 5 -3 26 -14 46 -11 19 -20 44 -20 55
0 11 -5 20 -11 20 -6 0 -9 6 -6 14 3 8 0 22 -8 32 -7 10 -11 23 -8 30 2 6 -2
18 -9 25 -7 8 -13 27 -13 43 1 15 -4 30 -11 33 -6 2 -9 15 -6 29 2 14 0 24 -7
24 -6 0 -11 15 -11 34 0 19 -4 37 -9 40 -4 3 -11 27 -15 53 -13 98 -18 123
-28 123 -7 0 -6 5 1 13 6 8 8 17 4 20 -3 4 -6 30 -7 59 -1 29 -5 52 -11 51 -6
-1 -9 51 -7 144 2 80 -1 150 -6 156 -12 15 -13 135 -1 143 5 3 9 72 9 155 0
95 4 149 10 149 6 0 10 24 9 58 0 31 5 80 11 107 7 28 14 71 17 98 3 26 9 47
14 47 5 0 9 20 9 45 0 30 5 47 14 51 8 3 12 12 9 20 -3 8 0 14 6 14 6 0 9 13
7 33 -2 17 0 34 4 37 4 3 10 14 12 25 1 11 9 26 16 34 7 7 10 22 7 32 -4 11
-2 19 4 19 6 0 11 9 11 19 0 11 9 36 21 55 11 19 17 40 14 46 -4 7 2 18 14 26
12 8 21 26 21 38 0 13 7 26 15 30 8 3 12 12 9 21 -4 10 0 15 11 15 14 0 15 3
5 15 -10 12 -9 15 5 15 12 0 16 6 12 20 -3 13 0 20 9 20 8 0 11 6 8 15 -4 8 1
17 10 21 9 3 13 10 10 16 -3 5 4 18 16 28 12 10 19 23 16 28 -3 6 1 13 10 16
8 3 12 11 9 17 -4 6 2 17 14 25 12 8 21 21 21 28 0 7 9 21 20 31 11 10 17 21
14 26 -2 5 4 14 16 21 11 7 20 20 20 28 0 8 9 21 20 28 11 7 20 18 20 25 0 7
16 28 35 47 19 19 35 39 35 44 0 15 365 378 372 371 3 -3 22 13 42 35 20 22
40 38 45 36 5 -3 16 3 26 14 10 11 22 17 26 14 5 -3 6 3 2 12 -5 13 -3 16 10
11 11 -4 20 1 27 13 6 11 18 20 27 20 8 0 24 9 34 21 10 11 22 18 27 15 5 -3
15 6 22 20 8 14 20 22 27 20 8 -3 16 1 19 9 3 7 12 11 20 8 9 -3 14 1 14 12 0
14 3 15 14 6 11 -9 17 -6 30 15 10 15 23 23 32 20 8 -3 14 1 14 8 0 9 7 12 19
9 13 -3 21 2 26 16 4 15 18 22 51 27 27 4 55 16 69 30 12 12 26 20 29 17 3 -4
13 2 21 13 8 10 15 14 15 7 0 -13 37 -6 58 10 10 8 16 7 23 -4 7 -11 9 -9 9 9
0 18 4 22 19 17 11 -3 26 1 35 10 9 9 16 14 16 11 0 -3 18 1 40 9 22 8 47 12
55 9 8 -4 15 -1 15 5 0 6 11 11 25 11 14 0 25 5 25 10 0 6 18 10 40 10 22 0
40 5 40 10 0 6 21 10 46 10 30 0 43 4 39 11 -5 7 9 10 42 8 27 -1 55 1 62 5 7
5 37 8 67 7 29 0 56 4 59 9 4 6 65 10 150 10 79 0 146 4 149 9 3 5 35 9 71 9
36 0 68 -4 71 -9 3 -5 68 -9 145 -9 89 0 139 -4 139 -10 0 -7 25 -10 63 -8 34
1 69 -2 77 -7 8 -5 33 -8 57 -6 24 1 43 -1 43 -6 0 -4 12 -9 28 -10 42 -4 61
-8 68 -16 4 -4 22 -7 41 -7 18 0 33 -5 33 -11 0 -7 10 -9 24 -7 14 3 27 0 29
-6 3 -7 18 -12 33 -11 16 0 35 -5 42 -12 8 -7 18 -11 23 -8 5 4 18 -1 30 -9
12 -8 28 -12 35 -9 8 3 14 0 14 -6 0 -6 9 -11 20 -11 11 0 36 -9 55 -20 20
-11 41 -18 46 -14 6 3 17 -3 25 -15 8 -12 23 -21 33 -21 25 0 71 -23 71 -37 0
-6 9 -9 20 -6 14 4 20 0 20 -12 0 -14 3 -15 15 -5 12 10 15 9 15 -4 0 -9 6
-16 13 -15 18 3 50 -12 68 -33 10 -11 23 -16 33 -12 11 4 16 1 16 -11 0 -9 5
-13 10 -10 12 7 40 -18 40 -35 0 -6 5 -8 11 -5 5 4 19 -1 30 -11 19 -17 48
-36 79 -50 8 -4 23 -17 33 -27 9 -11 20 -18 23 -14 3 3 26 -17 52 -44 25 -27
50 -48 54 -47 10 4 338 -323 338 -337 0 -5 19 -26 42 -47 23 -21 36 -38 28
-38 -8 0 1 -14 20 -32 19 -17 34 -37 32 -44 -1 -6 5 -14 13 -18 8 -3 20 -16
26 -28 16 -37 34 -66 54 -88 10 -11 14 -20 9 -20 -5 0 -1 -7 10 -15 10 -7 15
-18 12 -23 -3 -5 6 -15 19 -22 18 -9 23 -19 19 -32 -4 -13 0 -18 12 -18 13 0
14 -3 4 -15 -10 -12 -9 -15 5 -15 11 0 15 -5 11 -15 -3 -9 1 -18 10 -22 8 -3
13 -11 10 -18 -3 -8 2 -16 9 -19 8 -3 12 -12 9 -21 -4 -10 0 -15 11 -15 11 0
15 -5 12 -15 -4 -8 -2 -17 4 -21 6 -3 8 -12 5 -20 -3 -8 1 -14 9 -14 10 0 15
-10 15 -30 0 -16 5 -30 11 -30 8 0 8 -4 0 -14 -9 -11 -7 -15 9 -19 13 -3 18
-11 14 -20 -3 -8 -1 -18 5 -22 6 -3 11 -17 11 -30 0 -13 5 -27 10 -30 6 -3 10
-17 10 -31 0 -13 5 -24 10 -24 6 0 10 -13 10 -30 0 -16 4 -30 10 -30 5 0 7 -6
4 -14 -3 -7 1 -20 8 -27 7 -8 13 -27 12 -42 -1 -15 3 -30 7 -33 5 -3 9 -21 9
-40 0 -19 4 -34 8 -34 5 0 9 -19 10 -42 1 -23 6 -44 10 -47 4 -3 9 -24 11 -46
1 -22 5 -42 9 -45 4 -3 9 -34 11 -70 1 -36 6 -66 9 -67 9 -4 5 -652 -4 -673
-7 -17 -14 -104 -18 -206 -1 -40 -9 -86 -18 -105 -27 -56 -42 -93 -43 -109 -1
-8 -6 -26 -10 -40 -5 -14 -8 -31 -6 -38 1 -7 -5 -19 -13 -28 -8 -8 -13 -21
-10 -29 4 -8 1 -15 -5 -15 -6 0 -11 -11 -11 -24 0 -14 -5 -28 -11 -32 -6 -3
-9 -17 -6 -30 2 -14 -1 -25 -10 -28 -9 -4 -12 -13 -8 -25 4 -12 0 -21 -11 -25
-9 -4 -14 -9 -11 -13 4 -3 0 -15 -8 -25 -7 -11 -11 -27 -8 -34 3 -8 -1 -14
-10 -14 -10 0 -13 -7 -10 -20 4 -15 0 -20 -13 -20 -14 0 -15 -3 -6 -12 10 -10
7 -15 -10 -25 -13 -7 -17 -12 -10 -13 17 0 15 -20 -3 -20 -8 0 -12 -6 -9 -14
3 -7 -2 -16 -10 -19 -9 -4 -13 -13 -10 -22 4 -10 0 -15 -12 -15 -13 0 -15 -3
-7 -11 7 -7 0 -20 -24 -44 -19 -19 -31 -39 -28 -45 4 -6 -3 -20 -16 -31 -12
-10 -19 -22 -16 -25 8 -8 -18 -34 -33 -34 -7 0 -9 -8 -5 -20 4 -11 2 -20 -4
-20 -6 0 -11 -6 -11 -14 0 -8 -9 -22 -21 -30 -12 -8 -19 -19 -15 -24 6 -11
-27 -45 -37 -37 -4 3 -5 2 -3 -1 2 -3 -9 -18 -26 -34 -16 -16 -27 -34 -23 -39
3 -6 1 -11 -4 -11 -6 0 -11 -6 -11 -14 0 -14 -97 -116 -112 -116 -5 0 -4 -10
3 -21 6 -12 7 -19 1 -15 -5 3 -32 -19 -60 -49 -28 -30 -57 -55 -64 -55 -7 0
-40 -28 -73 -62 -33 -34 -65 -62 -72 -62 -7 -1 -27 -18 -46 -38 -19 -21 -37
-35 -40 -32 -8 8 -37 -21 -37 -37 0 -8 -3 -9 -13 0 -11 8 -17 5 -27 -14 -8
-14 -19 -24 -26 -21 -7 3 -28 -13 -47 -35 -24 -27 -43 -39 -61 -39 -14 0 -26
-4 -26 -10 0 -5 -6 -7 -13 -4 -7 2 -19 -6 -26 -20 -8 -14 -19 -22 -27 -19 -8
3 -14 0 -14 -6 0 -15 -27 -14 -33 2 -3 6 -6 2 -6 -10 -1 -13 -6 -23 -12 -23
-5 0 -7 5 -4 10 3 6 1 10 -4 10 -6 0 -11 -9 -11 -20 0 -11 -4 -20 -10 -20 -5
0 -10 5 -10 10 0 18 -18 10 -23 -10 -4 -17 -10 -20 -33 -14 -18 5 -25 3 -20
-4 3 -6 2 -13 -4 -17 -5 -3 -10 2 -10 11 0 10 -3 14 -7 10 -5 -4 -8 -13 -8
-18 0 -6 -6 -13 -14 -16 -9 -3 -11 0 -6 8 5 8 3 11 -6 8 -8 -3 -14 -11 -14
-18 0 -7 -6 -15 -14 -18 -8 -3 -11 0 -7 7 4 6 2 11 -3 11 -6 0 -11 -9 -11 -20
0 -11 -7 -20 -15 -20 -9 0 -12 6 -8 16 5 14 3 14 -15 -2 -12 -9 -18 -22 -15
-27 3 -5 0 -7 -8 -5 -8 3 -13 11 -11 17 1 8 -4 7 -18 -1 -11 -7 -20 -16 -20
-20 0 -5 -11 -8 -25 -8 -14 0 -25 -4 -25 -10 0 -5 -14 -10 -31 -10 -20 0 -28
-4 -23 -11 4 -7 1 -10 -7 -7 -8 3 -13 11 -11 17 1 7 -2 10 -8 6 -5 -3 -10 -15
-10 -26 0 -14 7 -19 25 -19 14 0 25 5 25 10 0 6 8 10 18 10 10 0 44 9 77 21
32 11 69 19 81 16 17 -3 21 0 16 11 -4 11 -1 13 8 7 9 -6 11 -4 5 5 -6 10 -3
12 14 7 13 -3 20 -3 17 1 -8 7 85 53 96 46 4 -3 8 0 8 5 0 6 5 11 11 11 5 0 7
-6 4 -12 -4 -7 0 -6 7 4 18 22 139 80 155 74 7 -3 10 1 7 8 -3 8 15 23 48 39
29 14 65 37 80 51 15 14 34 26 42 26 8 0 16 3 18 8 5 12 86 72 97 72 6 0 15 9
21 20 6 11 17 20 24 20 7 0 35 20 61 45 25 25 52 42 58 38 6 -4 8 0 4 10 -4
12 5 24 31 42 20 14 43 25 51 25 8 0 12 3 8 6 -6 7 54 70 65 67 3 -1 14 14 24
35 9 20 31 51 49 67 38 37 95 119 95 136 0 7 3 10 6 6 4 -3 22 13 42 36 19 23
39 41 44 39 5 -1 7 2 4 7 -7 11 17 57 67 127 19 27 37 62 41 77 4 17 11 25 18
21 6 -4 8 -3 4 4 -3 6 -1 14 6 19 7 4 21 25 31 46 10 24 22 35 29 31 6 -4 8
-3 5 3 -9 14 12 73 25 73 5 0 7 4 4 9 -3 5 5 25 19 45 14 20 25 43 25 51 0 19
22 68 35 77 6 5 5 8 -4 8 -11 0 -10 4 3 19 9 10 16 22 15 27 -4 15 21 93 31
99 5 3 7 12 4 19 -3 8 -1 17 5 20 6 4 8 13 4 21 -3 8 0 15 6 15 6 0 11 14 11
30 0 17 4 30 10 30 5 0 9 3 8 8 -3 12 23 95 40 127 9 17 14 44 13 60 -2 17 -4
39 -5 50 -1 11 2 29 8 40 12 26 15 115 4 115 -5 0 -2 8 7 17 16 15 17 50 14
381 -3 278 -7 366 -16 369 -9 3 -10 10 -3 24 6 10 7 19 2 19 -5 0 -8 16 -6 35
1 19 -1 33 -5 31 -4 -3 -7 3 -8 12 -3 24 -10 57 -28 132 -9 36 -18 80 -21 98
-2 18 -9 43 -16 55 -16 29 -20 46 -21 79 0 15 -4 25 -8 22 -4 -2 -13 15 -19
38 -6 24 -16 54 -22 68 -6 14 -12 27 -13 30 -5 30 -60 160 -66 160 -5 0 -9 5
-9 11 0 6 -13 38 -30 71 -16 32 -30 65 -30 72 0 11 -30 56 -70 103 -6 7 -9 15
-8 17 2 3 -4 14 -12 23 -44 54 -44 54 -24 47 18 -5 18 -5 1 6 -9 6 -42 46 -72
89 -30 43 -69 93 -87 110 -17 17 -29 31 -25 31 10 0 -28 43 -110 123 -40 39
-73 77 -73 84 0 7 -6 12 -12 11 -8 -2 -12 5 -10 17 2 14 0 16 -6 7 -6 -9 -22
3 -59 42 -28 29 -76 73 -107 96 -33 25 -55 49 -52 56 3 8 0 11 -10 7 -9 -3
-14 1 -14 13 0 15 -2 16 -9 5 -7 -10 -12 -8 -24 9 -9 14 -20 19 -28 15 -7 -5
-10 -4 -6 2 4 6 -1 13 -11 17 -9 3 -30 15 -47 26 -16 11 -38 23 -47 26 -10 4
-18 10 -18 14 0 4 -11 12 -25 18 -14 6 -25 20 -25 29 0 14 -2 15 -9 4 -5 -7
-14 -10 -20 -7 -6 4 -8 12 -5 18 5 7 1 9 -9 5 -10 -3 -17 -2 -17 4 0 6 -4 8
-8 5 -5 -3 -18 2 -28 12 -10 9 -39 26 -64 37 -25 11 -48 23 -51 28 -3 5 -10 9
-15 9 -5 0 -19 4 -32 9 -13 5 -28 9 -33 9 -5 0 -9 5 -9 10 0 6 -11 10 -24 10
-13 0 -34 8 -47 19 -13 10 -27 19 -31 20 -13 3 -31 8 -98 31 -36 11 -73 21
-82 21 -10 0 -18 4 -18 8 0 4 -6 8 -12 9 -25 3 -53 9 -68 14 -58 21 -108 32
-125 30 -17 -2 -18 -1 -5 8 12 9 11 10 -7 5 -13 -3 -28 -3 -35 1 -6 4 -33 8
-60 8 -26 0 -48 4 -48 7 0 4 -9 9 -20 12 -11 3 -18 2 -15 -3 6 -10 -84 0 -107
11 -9 5 -75 9 -147 9 -76 0 -132 4 -136 10 -3 6 -9 9 -13 9 -4 -1 -45 -6 -92
-10z m-1153 -5285 c-3 -3 -12 -4 -19 -1 -8 3 -5 6 6 6 11 1 17 -2 13 -5z m83
-39 c7 -8 8 -15 2 -15 -5 0 -15 7 -22 15 -7 8 -8 15 -2 15 5 0 15 -7 22 -15z
m260 -75 c0 -5 -4 -10 -10 -10 -5 0 -10 5 -10 10 0 6 5 10 10 10 6 0 10 -4 10
-10z"/>
<path d="M1728 5709 c-10 -5 -18 -15 -18 -22 0 -8 3 -9 8 -1 4 6 16 16 27 22
11 6 16 11 10 11 -5 0 -18 -4 -27 -10z"/>
<path d="M4496 5668 c3 -5 10 -6 15 -3 13 9 11 12 -6 12 -8 0 -12 -4 -9 -9z"/>
<path d="M1550 5621 c0 -10 19 -25 25 -20 1 2 -3 10 -11 17 -8 7 -14 8 -14 3z"/>
<path d="M1406 5532 c-2 -4 4 -8 14 -8 10 0 16 4 14 8 -3 4 -9 8 -14 8 -5 0
-11 -4 -14 -8z"/>
<path d="M4815 5400 c-4 -6 -11 -7 -17 -4 -6 4 -8 2 -4 -4 3 -6 -2 -13 -11
-15 -10 -3 -4 -4 12 -3 32 3 84 -18 86 -34 1 -6 2 -14 3 -19 0 -5 5 -13 10
-18 5 -5 6 -3 2 5 -5 7 -1 12 9 12 11 0 15 -5 11 -15 -3 -8 -2 -14 2 -13 14 4
63 -35 59 -47 -3 -6 4 -11 15 -11 12 1 23 -6 26 -14 5 -13 3 -13 -14 0 -18 14
-18 14 -5 -2 7 -10 16 -16 20 -13 13 7 73 -64 65 -76 -4 -8 -3 -9 5 -5 15 9
44 -20 46 -48 2 -11 8 -20 14 -18 7 1 26 -9 43 -23 16 -14 26 -25 22 -25 -5 0
1 -7 13 -15 12 -8 31 -31 43 -50 12 -19 28 -35 36 -35 8 0 14 -4 14 -10 0 -5
-6 -7 -14 -4 -8 3 -17 1 -20 -4 -3 -5 5 -8 18 -7 25 3 71 -38 61 -54 -6 -10
19 -33 28 -25 3 3 11 -5 18 -18 6 -12 15 -25 18 -28 3 -3 13 -14 21 -24 13
-18 13 -19 0 -11 -8 4 -5 -3 8 -17 12 -13 22 -32 22 -41 0 -9 5 -17 11 -17 5
0 8 -4 5 -9 -3 -4 3 -16 14 -26 11 -10 17 -22 14 -26 -3 -5 -1 -9 4 -9 10 0
36 -58 34 -72 -1 -4 9 -15 22 -25 12 -10 22 -26 20 -35 -1 -9 7 -24 17 -34 15
-13 16 -20 8 -31 -10 -11 -8 -12 6 -6 15 5 17 3 12 -11 -4 -10 -3 -15 3 -11 6
3 10 1 10 -4 0 -6 -6 -11 -12 -11 -7 0 -1 -8 13 -18 15 -9 25 -25 23 -35 -1
-9 1 -15 6 -12 13 8 19 -32 6 -46 -8 -10 -7 -10 7 0 9 7 17 12 18 10 7 -36 6
-40 -7 -35 -9 3 -12 1 -9 -4 3 -6 12 -10 20 -10 7 0 16 -13 20 -30 4 -16 11
-30 16 -30 6 0 7 -5 4 -11 -4 -5 0 -18 8 -27 9 -9 16 -21 18 -27 3 -16 33
-115 47 -155 3 -8 6 -17 6 -20 1 -3 5 -11 10 -19 7 -10 5 -12 -5 -7 -8 4 -5 0
5 -8 15 -12 16 -16 5 -16 -8 0 -10 -3 -4 -8 10 -7 17 -27 18 -49 0 -7 5 -13
11 -13 6 0 6 -4 -2 -12 -9 -9 -7 -15 6 -25 9 -8 12 -12 6 -9 -7 3 -14 -1 -17
-9 -4 -9 -1 -12 8 -9 10 4 13 -2 11 -20 -2 -15 1 -29 5 -32 5 -3 9 -20 9 -39
0 -19 4 -36 9 -39 4 -3 7 -17 6 -31 -2 -14 1 -23 6 -19 5 3 9 -19 9 -48 1 -79
3 -97 12 -92 9 6 10 -5 8 -61 -1 -30 4 -46 19 -59 12 -11 21 -14 21 -8 0 7 -3
12 -7 12 -5 0 -8 24 -8 53 0 51 -19 174 -36 232 -5 17 -9 47 -11 68 -1 20 -5
37 -9 37 -5 0 -6 9 -4 20 2 11 -4 46 -14 78 -47 147 -56 178 -57 194 -1 10 -7
24 -14 33 -7 8 -10 15 -7 15 7 0 -41 120 -54 136 -5 7 -8 16 -7 20 2 5 -12 40
-30 77 -19 38 -42 88 -52 110 -9 23 -41 82 -69 130 -28 49 -51 93 -51 98 0 5
-4 9 -10 9 -5 0 -10 7 -10 15 0 8 -4 15 -9 15 -5 0 -19 26 -32 58 -22 56 -80
144 -112 171 -9 7 -15 16 -13 20 3 4 -9 16 -25 26 -16 11 -29 23 -29 26 0 3
-60 68 -132 144 -73 76 -132 142 -131 146 3 8 -114 113 -182 164 -22 17 -41
33 -43 38 -5 10 -20 9 -27 -3z"/>
<path d="M5059 5133 c-13 -16 -12 -17 4 -4 16 13 21 21 13 21 -2 0 -10 -8 -17
-17z"/>
<path d="M763 4975 c0 -8 4 -12 9 -9 5 3 6 10 3 15 -9 13 -12 11 -12 -6z"/>
<path d="M5440 4696 c0 -2 8 -10 18 -17 15 -13 16 -12 3 4 -13 16 -21 21 -21
13z"/>
<path d="M5769 4078 c-6 -17 -3 -66 3 -62 5 3 6 10 3 15 -4 5 -1 9 6 9 8 0 9
3 0 13 -6 8 -8 17 -4 20 3 4 3 7 0 7 -4 0 -7 -1 -8 -2z"/>
<path d="M5656 3843 c-6 -14 -5 -15 5 -6 7 7 10 15 7 18 -3 3 -9 -2 -12 -12z"/>
<path d="M5846 3763 c-6 -14 -5 -15 5 -6 7 7 10 15 7 18 -3 3 -9 -2 -12 -12z"/>
<path d="M251 3634 c0 -11 3 -14 6 -6 3 7 2 16 -1 19 -3 4 -6 -2 -5 -13z"/>
<path d="M10 3495 c0 -22 5 -35 13 -35 9 0 12 11 9 35 -2 19 -8 35 -13 35 -5
0 -9 -16 -9 -35z"/>
<path d="M5950 3260 c0 -5 5 -10 11 -10 5 0 7 5 4 10 -3 6 -8 10 -11 10 -2 0
-4 -4 -4 -10z"/>
<path d="M5923 3245 c0 -8 4 -15 9 -15 4 0 8 7 8 15 0 8 -4 15 -8 15 -5 0 -9
-7 -9 -15z"/>
<path d="M5980 3229 c0 -5 5 -7 10 -4 6 3 10 8 10 11 0 2 -4 4 -10 4 -5 0 -10
-5 -10 -11z"/>
<path d="M5981 2750 c-8 -4 -20 -6 -28 -3 -9 4 -11 0 -6 -13 6 -17 5 -18 -12
-4 -17 14 -17 14 -5 -7 13 -20 15 -20 27 -5 11 15 12 12 6 -18 -3 -19 -15 -46
-27 -60 l-21 -25 22 18 c16 14 23 15 29 6 4 -7 3 -10 -3 -6 -6 4 -13 -3 -16
-14 -3 -12 -10 -18 -15 -15 -14 8 -9 -18 6 -36 10 -13 9 -40 -5 -78 -3 -8 -7
-26 -9 -40 -4 -32 -24 -121 -31 -140 -11 -29 -11 -40 0 -33 9 5 9 3 0 -8 -6
-8 -13 -27 -15 -41 -2 -15 -8 -31 -13 -35 -4 -5 -5 -2 0 6 5 8 4 12 -1 8 -5
-3 -9 -18 -8 -34 1 -15 -3 -34 -9 -40 -5 -7 -6 -13 -3 -13 4 0 0 -12 -8 -27
-8 -16 -18 -45 -21 -66 -5 -29 -10 -37 -21 -33 -10 4 -13 2 -7 -7 13 -21 12
-37 -3 -37 -9 0 -12 5 -8 13 4 6 3 8 -1 4 -12 -10 -15 -38 -4 -31 5 3 9 1 9
-5 0 -5 -5 -13 -10 -16 -6 -4 -10 -12 -9 -18 2 -18 -12 -57 -20 -57 -4 0 -8
-6 -9 -12 -2 -29 -9 -47 -25 -69 -15 -20 -16 -21 -7 -3 7 17 6 25 -8 35 -15
12 -15 12 -5 -1 7 -10 9 -21 3 -30 -5 -9 -5 -19 2 -27 7 -9 7 -13 -1 -13 -7 0
-10 -4 -7 -9 3 -5 -1 -14 -9 -21 -8 -7 -12 -17 -8 -24 4 -7 1 -6 -8 1 -13 10
-16 10 -16 -2 0 -8 5 -15 11 -16 6 0 2 -4 -9 -9 -11 -5 -14 -9 -7 -9 9 -1 7
-9 -7 -27 -11 -15 -18 -30 -15 -35 3 -5 0 -9 -6 -9 -6 0 -9 -4 -6 -9 3 -5 -1
-12 -10 -15 -8 -3 -12 -11 -9 -16 4 -6 3 -10 -2 -9 -20 3 -27 -2 -13 -11 13
-8 13 -10 -2 -10 -9 0 -20 -5 -24 -12 -4 -7 -3 -8 4 -4 7 4 12 2 12 -3 0 -6
-4 -11 -10 -11 -5 0 -10 -5 -10 -10 0 -6 -13 -29 -30 -52 -16 -22 -30 -47 -30
-54 0 -7 -4 -15 -9 -19 -6 -3 -8 3 -6 13 2 11 -3 19 -10 19 -8 0 -11 -5 -7
-11 19 -30 -26 -90 -60 -80 -9 3 -20 -1 -24 -7 -5 -8 -3 -9 6 -4 7 4 16 2 21
-6 12 -19 11 -32 -1 -24 -6 4 -9 1 -8 -6 2 -7 -8 -18 -20 -25 -17 -8 -20 -13
-10 -17 9 -4 10 -6 1 -6 -7 -1 -13 -6 -13 -12 0 -14 -48 -60 -53 -51 -2 4 -2
2 -1 -5 3 -10 -60 -83 -68 -79 -2 0 -2 -1 -1 -3 2 -2 -2 -10 -8 -18 -6 -7 -8
-13 -3 -13 5 0 -3 -8 -16 -17 -14 -10 -29 -17 -33 -15 -5 1 -5 -2 -2 -8 4 -7
-2 -14 -15 -17 -16 -4 -18 -8 -8 -14 10 -7 10 -9 -2 -9 -8 0 -37 -24 -65 -52
-27 -29 -68 -67 -90 -85 -22 -17 -61 -52 -88 -77 -26 -25 -52 -46 -59 -46 -6
0 -17 -8 -25 -17 -8 -10 -11 -12 -7 -4 5 9 3 12 -4 7 -7 -4 -12 -14 -12 -22 0
-8 -5 -14 -11 -14 -5 0 -7 -6 -3 -12 6 -10 4 -10 -8 0 -14 11 -19 9 -36 -13
-11 -14 -24 -24 -29 -23 -4 2 -9 -1 -10 -6 -1 -8 -55 -44 -93 -63 -8 -4 -24
-15 -34 -25 -25 -23 -43 -23 -25 0 13 15 12 16 -3 3 -10 -7 -15 -18 -12 -23 4
-6 -2 -7 -16 -3 -15 5 -20 4 -16 -4 4 -6 -4 -16 -18 -22 -14 -7 -23 -16 -20
-20 8 -14 -10 -11 -25 4 -10 10 -11 9 -6 -4 4 -11 -1 -18 -17 -23 -34 -9 -45
-7 -28 5 13 9 13 10 0 6 -8 -2 -15 -9 -15 -15 0 -6 -6 -17 -12 -23 -7 -7 -13
-9 -13 -5 0 5 -12 1 -26 -8 -14 -10 -31 -15 -37 -13 -7 2 -20 0 -29 -5 -12 -6
-18 -5 -18 3 0 7 -3 10 -6 6 -14 -14 8 -27 29 -16 19 9 19 8 -3 -10 -13 -10
-27 -18 -31 -16 -3 2 -31 -9 -62 -24 -31 -15 -53 -23 -50 -17 4 6 -1 5 -10 -2
-9 -8 -22 -10 -28 -6 -7 4 -10 3 -7 -2 3 -5 -1 -16 -10 -23 -14 -13 -15 -12
-9 8 4 17 3 20 -7 12 -7 -6 -16 -7 -20 -3 -4 4 -6 1 -4 -7 3 -13 -20 -24 -76
-36 -11 -3 -22 -8 -25 -13 -3 -5 -20 -9 -38 -10 -17 0 -44 -7 -60 -16 -25 -13
-26 -15 -9 -22 12 -4 46 1 85 14 36 12 77 24 91 27 14 4 44 15 66 25 23 11 54
22 68 26 14 3 26 10 26 15 0 5 8 9 18 9 10 0 22 3 26 7 3 4 12 8 19 9 23 3
212 97 284 140 40 24 75 44 78 44 6 0 88 52 95 61 3 3 43 31 90 61 47 31 107
77 135 102 27 25 52 46 55 46 3 0 26 19 51 43 25 23 69 65 99 93 60 56 210
216 221 236 4 7 26 33 49 58 23 25 67 83 98 130 31 47 63 93 71 102 9 9 25 34
36 55 11 21 38 70 61 108 39 66 134 258 138 280 2 6 10 28 20 50 10 22 25 58
33 80 9 22 20 45 24 51 5 6 11 21 13 35 3 13 5 26 6 29 1 3 3 10 4 15 1 6 13
46 28 90 15 44 29 91 31 105 2 14 7 32 11 41 4 9 6 20 5 25 -1 5 -1 11 1 14 1
3 3 16 6 30 2 14 13 72 23 130 11 58 21 134 23 170 2 36 7 68 13 72 14 10 1
18 -14 8z m-27 -171 c-3 -5 -10 -7 -15 -3 -5 3 -7 10 -3 15 3 5 10 7 15 3 5
-3 7 -10 3 -15z m-530 -1324 c-4 -8 -11 -15 -16 -15 -6 0 -5 6 2 15 7 8 14 15
16 15 2 0 1 -7 -2 -15z m-674 -669 c0 -2 -8 -10 -17 -17 -16 -13 -17 -12 -4 4
13 16 21 21 21 13z"/>
<path d="M2 2564 c3 -5 9 -45 12 -89 4 -44 11 -95 16 -112 6 -18 15 -48 20
-66 6 -18 10 -41 10 -51 0 -9 6 -31 13 -49 8 -18 15 -36 16 -42 2 -5 19 -40
37 -76 19 -37 34 -71 33 -75 -3 -13 11 -64 27 -101 8 -18 21 -51 30 -74 8 -23
19 -48 25 -56 6 -7 8 -13 4 -13 -15 0 147 -287 200 -355 18 -22 54 -76 81
-119 27 -44 65 -96 84 -117 19 -21 42 -46 50 -56 118 -142 162 -191 237 -263
48 -47 111 -103 138 -125 28 -22 59 -49 70 -60 41 -41 112 -93 210 -155 55
-35 102 -67 103 -72 2 -4 7 -8 12 -8 5 0 50 -24 102 -54 51 -29 118 -64 148
-77 30 -12 57 -26 60 -30 6 -8 54 -23 56 -18 1 2 11 -4 21 -14 11 -9 23 -14
26 -11 4 4 12 2 19 -3 17 -13 169 -75 188 -77 14 -1 47 -11 192 -57 31 -9 66
-15 77 -12 12 3 21 1 21 -4 0 -5 15 -10 33 -11 17 -1 50 -6 72 -11 77 -18 161
-31 220 -34 33 -1 63 -6 67 -12 5 -6 8 -5 8 2 0 17 -30 30 -62 28 -15 -1 -25
2 -22 7 3 4 9 6 13 4 4 -3 8 2 8 10 0 10 -4 11 -11 4 -14 -14 -29 -13 -20 2 5
10 4 10 -6 1 -7 -6 -19 -9 -28 -6 -9 4 -13 2 -9 -4 4 -6 0 -13 -8 -16 -9 -4
-12 -1 -8 9 4 12 1 13 -20 5 -19 -8 -27 -6 -31 5 -3 8 -10 14 -16 14 -6 0 -9
-4 -6 -9 3 -4 -6 -6 -20 -3 -19 3 -22 7 -12 14 8 6 2 7 -19 4 -19 -2 -34 1
-36 7 -3 9 -10 9 -26 -1 -12 -7 -21 -8 -21 -2 0 5 -9 10 -20 10 -11 0 -20 4
-20 10 0 5 -7 7 -15 4 -9 -4 -15 0 -15 7 0 11 -3 11 -10 -1 -7 -10 -13 -11
-17 -5 -5 6 -17 11 -28 10 -11 0 -20 5 -20 12 0 6 -4 15 -9 20 -5 4 -6 3 -3
-4 13 -21 -18 -20 -31 1 -9 14 -12 16 -8 4 7 -22 -3 -23 -32 -2 -12 8 -27 12
-33 9 -5 -4 -19 1 -29 10 -11 10 -26 15 -34 12 -9 -4 -18 -2 -21 3 -4 6 -15
10 -26 10 -13 0 -18 4 -13 12 5 8 2 9 -9 5 -19 -7 -22 4 -7 19 7 7 1 10 -20 9
-16 -1 -33 -5 -37 -10 -5 -4 -2 -5 6 0 10 6 12 4 7 -4 -6 -9 -12 -8 -26 4 -10
9 -23 14 -29 11 -5 -3 -11 -1 -13 4 -2 6 -13 12 -25 13 -12 0 -19 5 -17 9 3 4
0 8 -6 8 -6 0 -9 4 -6 9 3 4 -6 13 -19 19 -20 9 -26 8 -35 -6 -10 -14 -11 -13
-6 7 3 16 2 21 -5 14 -12 -12 -59 -5 -59 9 0 6 -7 8 -14 5 -11 -4 -13 -1 -9
10 4 10 2 14 -5 9 -6 -3 -13 -2 -17 4 -4 6 -11 8 -16 5 -5 -4 -9 -2 -9 4 0 5
-9 8 -20 6 -11 -2 -23 1 -26 7 -5 7 -2 8 6 3 9 -5 11 -4 6 4 -4 6 -11 9 -16 6
-4 -3 -21 5 -37 18 -15 13 -47 31 -70 41 -23 10 -40 23 -37 27 3 5 -1 6 -9 4
-7 -3 -22 3 -32 15 -10 11 -24 20 -32 20 -8 0 -11 5 -8 10 4 6 1 9 -7 8 -7 -2
-12 4 -10 12 2 8 0 12 -4 8 -8 -9 -64 22 -64 35 0 5 -7 6 -16 3 -12 -5 -14 -1
-8 16 6 21 5 22 -11 8 -17 -14 -18 -13 -12 2 3 10 3 17 -1 16 -13 -3 -52 13
-52 22 0 5 -10 12 -21 15 -17 6 -19 9 -8 16 11 6 9 9 -8 9 -12 0 -25 4 -28 10
-4 6 1 7 12 4 14 -5 15 -4 4 4 -8 6 -20 8 -27 5 -14 -5 -49 42 -49 66 0 11 -8
16 -24 15 -23 -2 -86 48 -86 67 0 6 -19 23 -42 38 -29 19 -39 31 -32 38 8 8 7
13 -2 18 -8 5 -10 4 -5 -3 11 -18 -6 -14 -32 8 -13 11 -21 24 -18 29 3 5 -1
14 -9 21 -8 7 -15 9 -15 6 0 -4 -6 -1 -14 6 -10 9 -11 15 -2 20 8 6 7 8 -2 8
-19 0 -43 27 -40 44 2 8 0 14 -3 13 -11 -3 -49 35 -49 50 0 7 -6 13 -13 13
-17 0 -53 38 -44 46 3 4 -1 13 -9 21 -8 8 -12 19 -9 24 4 5 -2 6 -11 2 -12 -4
-15 -3 -10 5 4 7 1 15 -8 18 -9 3 -12 12 -9 22 4 9 3 14 -2 10 -9 -9 -42 26
-50 53 -4 11 -11 19 -16 19 -5 0 -9 8 -7 18 2 10 -2 16 -10 14 -8 -1 -11 2 -8
7 4 5 -4 19 -16 31 -21 19 -21 21 -3 14 12 -4 4 9 -23 35 -37 36 -41 44 -22
43 3 0 5 10 5 23 0 13 -3 21 -7 18 -5 -2 -8 -11 -8 -19 0 -8 -5 -14 -11 -14
-5 0 -8 4 -4 9 3 6 -3 14 -12 20 -10 6 -14 11 -9 11 5 0 3 7 -4 15 -7 8 -9 15
-6 15 4 0 -2 14 -14 30 -12 17 -18 30 -14 30 4 0 -1 9 -10 19 -20 22 -13 49 8
32 8 -7 12 -4 13 12 1 12 -1 17 -5 12 -17 -24 -38 -13 -56 28 -10 23 -18 44
-18 47 0 3 -5 11 -11 19 -10 12 -9 13 2 6 9 -5 7 5 -7 27 -12 19 -20 44 -17
56 2 13 -1 22 -9 22 -6 0 -12 10 -12 23 -1 12 -8 39 -17 60 -9 20 -15 39 -14
41 1 1 -4 10 -11 19 -8 9 -11 21 -7 26 4 7 -1 8 -12 4 -10 -3 -15 -3 -11 2 4
4 1 19 -6 34 -13 25 -32 108 -28 124 1 4 -3 7 -9 7 -8 0 -7 6 2 17 12 14 12
16 0 8 -11 -6 -13 -4 -8 7 3 9 1 20 -5 26 -6 6 -11 25 -10 41 0 17 -4 33 -9
36 -5 4 -9 11 -9 16 0 6 5 7 10 4 6 -3 10 -1 10 4 0 6 -4 11 -9 11 -6 0 -11
19 -13 42 -2 24 -9 43 -17 46 -8 3 -11 1 -9 -4z m1028 -1786 c0 -4 -7 -8 -15
-8 -8 0 -15 4 -15 8 0 5 7 9 15 9 8 0 15 -4 15 -9z m770 -493 c0 -2 -7 -5 -15
-9 -9 -3 -15 0 -15 9 0 9 6 12 15 9 8 -4 15 -7 15 -9z m164 -70 c-4 -8 -11
-12 -16 -9 -6 4 -5 10 3 15 19 12 19 11 13 -6z"/>
<path d="M5843 2225 c0 -8 4 -12 9 -9 5 3 6 10 3 15 -9 13 -12 11 -12 -6z"/>
<path d="M600 1256 c0 -2 8 -10 18 -17 15 -13 16 -12 3 4 -13 16 -21 21 -21
13z"/>
<path d="M622 1194 c10 -10 20 -16 22 -13 3 3 -5 11 -17 18 -21 13 -21 12 -5
-5z"/>
<path d="M5310 1149 c0 -5 5 -7 10 -4 6 3 10 8 10 11 0 2 -4 4 -10 4 -5 0 -10
-5 -10 -11z"/>
<path d="M566 1135 c4 -8 8 -15 10 -15 2 0 4 7 4 15 0 8 -4 15 -10 15 -5 0 -7
-7 -4 -15z"/>
<path d="M4840 680 c0 -5 5 -10 10 -10 6 0 10 5 10 10 0 6 -4 10 -10 10 -5 0
-10 -4 -10 -10z"/>
<path d="M4936 672 c-3 -5 1 -9 9 -9 8 0 12 4 9 9 -3 4 -7 8 -9 8 -2 0 -6 -4
-9 -8z"/>
<path d="M4750 630 c-9 -6 -10 -10 -3 -10 6 0 15 5 18 10 8 12 4 12 -15 0z"/>
<path d="M1262 611 c-11 -7 -11 -9 0 -14 9 -3 15 1 15 9 0 8 -1 14 -1 14 -1 0
-7 -4 -14 -9z"/>
<path d="M1858 523 c6 -2 18 -2 25 0 6 3 1 5 -13 5 -14 0 -19 -2 -12 -5z"/>
<path d="M4323 375 c0 -8 4 -12 9 -9 5 3 6 10 3 15 -9 13 -12 11 -12 -6z"/>
<path d="M3670 349 c0 -5 5 -7 10 -4 6 3 10 8 10 11 0 2 -4 4 -10 4 -5 0 -10
-5 -10 -11z"/>
<path d="M3525 309 c-11 -16 -1 -19 13 -3 7 8 8 14 3 14 -5 0 -13 -5 -16 -11z"/>
<path d="M3709 130 c-1 -8 -1 -18 0 -22 0 -5 -11 -8 -26 -9 -16 0 -37 -3 -48
-5 -11 -2 -35 -6 -53 -8 -18 -2 -40 -10 -49 -18 -9 -7 -14 -8 -10 -2 3 6 -5
10 -23 10 -19 0 -26 -4 -23 -13 4 -9 0 -11 -13 -6 -13 5 -15 3 -9 -8 6 -11 5
-11 -5 -2 -8 7 -22 8 -40 3 -18 -5 -32 -4 -40 3 -10 9 -11 9 -6 -1 6 -10 1
-11 -20 -6 -15 4 -25 3 -21 -2 3 -5 -9 -10 -26 -10 -27 -1 -28 0 -13 11 15 12
15 13 -7 11 -18 -1 -23 -5 -19 -20 4 -14 2 -17 -8 -11 -8 5 -11 4 -6 -3 3 -5
0 -13 -6 -15 -8 -3 -6 -6 5 -6 9 -1 17 2 17 7 0 4 12 7 28 8 96 1 133 5 127
14 -3 5 0 7 9 4 8 -3 52 1 98 10 46 9 94 18 108 20 14 3 26 5 28 7 1 1 11 3
22 4 11 1 21 3 23 5 1 1 16 4 32 6 45 7 57 13 50 25 -4 6 -13 8 -20 5 -7 -2
-18 1 -24 7 -6 6 -11 7 -11 2 0 -6 -5 -3 -10 5 -9 13 -10 13 -11 0z m31 -16
c0 -8 -19 -13 -24 -6 -3 5 1 9 9 9 8 0 15 -2 15 -3z"/>
<path d="M2546 68 c3 -5 10 -6 15 -3 13 9 11 12 -6 12 -8 0 -12 -4 -9 -9z"/>
<path d="M2704 63 c-10 -7 -13 -13 -7 -13 7 0 14 4 18 10 3 5 12 7 19 4 8 -3
16 -2 19 3 8 14 -30 10 -49 -4z"/>
<path d="M3335 70 c-16 -7 -17 -9 -3 -9 9 -1 20 4 23 9 7 11 7 11 -20 0z"/>
<path d="M2781 44 c0 -11 3 -14 6 -6 3 7 2 16 -1 19 -3 4 -6 -2 -5 -13z"/>
</g>
</svg>
