<svg width="800" height="600" xmlns="http://www.w3.org/2000/svg">

 <g>
  <title>Layer 1</title>
  <path id="svg_5" d="m80.6,72.99273l16.04269,0l4.95731,-15.24048l4.95732,15.24048l16.04268,0l-12.97878,9.41903l4.95757,15.24048l-12.97879,-9.41929l-12.97878,9.41929l4.95757,-15.24048l-12.97879,-9.41903z" stroke="#000" fill="#ffff56"/>
  <path id="svg_6" d="m424.86998,78.21389l6.87545,0l2.12457,-6.53165l2.12457,6.53165l6.87545,0l-5.56235,4.03673l2.12468,6.53165l-5.56235,-4.03684l-5.56235,4.03684l2.12468,-6.53165l-5.56235,-4.03673z" stroke="#000" fill="#ffff56"/>
  <path id="svg_7" d="m212.935,265.91003l14.87668,0l4.59701,-14.13278l4.59701,14.13278l14.87668,0l-12.03547,8.73444l4.59725,14.13278l-12.03547,-8.73468l-12.03547,8.73468l4.59725,-14.13278l-12.03547,-8.73444z" stroke="#000" fill="#ffff56"/>
  <path id="svg_8" d="m576.10996,467.31667l27.88371,0l8.61628,-26.48941l8.61629,26.48941l27.88371,0l-22.55836,16.37117l8.61673,26.48941l-22.55837,-16.37162l-22.55836,16.37162l8.61673,-26.48941l-22.55837,-16.37117z" stroke="#000" fill="#ffff56"/>
  <path id="svg_9" d="m624.86496,224.19806l3.43772,0l1.06228,-3.26582l1.06228,3.26582l3.43772,0l-2.78117,2.01836l1.06234,3.26582l-2.78117,-2.01842l-2.78117,2.01842l1.06234,-3.26582l-2.78117,-2.01836z" stroke="#000" fill="#ffff56"/>
  <path id="svg_10" d="m139.305,461.11324l8.78529,0l2.71472,-8.34599l2.71472,8.34599l8.78529,0l-7.10743,5.15804l2.71486,8.34599l-7.10744,-5.15818l-7.10743,5.15818l2.71486,-8.34599l-7.10744,-5.15804z" stroke="#000" fill="#ffff56"/>
  <path id="svg_11" d="m384.075,192.00675l7.25739,0l2.24259,-6.89449l2.24259,6.89449l7.25739,0l-5.87135,4.26098l2.24271,6.89449l-5.87135,-4.2611l-5.87135,4.2611l2.24271,-6.89449l-5.87135,-4.26098z" stroke="#000" fill="#ffff56"/>
  <path id="svg_12" d="m440.79001,347.66011l0.38197,0l0.11803,-0.36287l0.11803,0.36287l0.38197,0l-0.30902,0.22426l0.11804,0.36287l-0.30902,-0.22427l-0.30902,0.22427l0.11804,-0.36287l-0.30902,-0.22426z" stroke="#000" fill="#ffff56"/>
  <path id="svg_13" d="m628.845,64.15609l14.07253,0l4.34852,-13.36885l4.34852,13.36885l14.07253,0l-11.3849,8.26231l4.34875,13.36885l-11.3849,-8.26253l-11.3849,8.26253l4.34875,-13.36885l-11.3849,-8.26231z" stroke="#000" fill="#ffff56"/>
  <path id="svg_14" d="m310.445,489.94513l0.38197,0l0.11803,-0.36287l0.11803,0.36287l0.38197,0l-0.30902,0.22426l0.11804,0.36287l-0.30902,-0.22427l-0.30902,0.22427l0.11804,-0.36287l-0.30902,-0.22426z" stroke="#000" fill="#ffff56"/>
  <path id="svg_15" d="m110.45,268.06978l5.62901,0l1.73941,-5.34754l1.73941,5.34754l5.62901,0l-4.55396,3.30492l1.7395,5.34754l-4.55396,-3.30501l-4.55396,3.30501l1.7395,-5.34754l-4.55396,-3.30492z" stroke="#000" fill="#ffff56"/>
  <path id="svg_16" d="m691.53006,350.48099l6.49347,0l2.00653,-6.16877l2.00653,6.16877l6.49347,0l-5.25332,3.81247l2.00664,6.16877l-5.25332,-3.81257l-5.25332,3.81257l2.00664,-6.16877l-5.25332,-3.81247z" stroke="#000" fill="#ffff56"/>
  <path id="svg_17" d="m452.73003,190.13912l13.67046,0l4.22428,-12.98688l4.22428,12.98688l13.67045,0l-11.05961,8.02624l4.22449,12.98688l-11.05962,-8.02646l-11.05961,8.02646l4.2245,-12.98688l-11.05961,-8.02624z" stroke="#000" fill="#ffff56"/>
  <path id="svg_18" d="m354.22499,442.49659l8.04144,0l2.48487,-7.63933l2.48487,7.63933l8.04144,0l-6.50565,4.72131l2.485,7.63933l-6.50565,-4.72144l-6.50565,4.72144l2.485,-7.63933l-6.50565,-4.72131z" stroke="#000" fill="#ffff56"/>
 </g>
</svg>